<svg width="143" height="33" viewBox="0 0 143 33" fill="none" xmlns="http://www.w3.org/2000/svg">
<path d="M0.167969 18.6584L10.8534 0.164307L18.2511 2.87677L27.1282 17.5898L23.5116 32.0563H3.70239H2.46945L0.167969 27.3711V18.6584Z" fill="black"/>
<path d="M0.167969 18.6584L10.8534 0.164307L18.2511 2.87677L27.1282 17.5898L23.5116 32.0563H3.70239H2.46945L0.167969 27.3711V18.6584Z" fill="url(#paint0_linear_463_116)"/>
<path fill-rule="evenodd" clip-rule="evenodd" d="M10.7075 0.0821715C10.7475 0.0129837 10.8314 -0.0174385 10.9065 0.0100695L18.3041 2.72253C18.3392 2.73542 18.3689 2.75991 18.3882 2.79195L27.2654 17.505C27.288 17.5425 27.2947 17.5874 27.2841 17.6298L23.6675 32.0963C23.6492 32.1695 23.5835 32.2208 23.508 32.2208H2.46588C2.40319 32.2208 2.34596 32.1852 2.31833 32.1289L0.0168412 27.4437C0.00576132 27.4212 0 27.3964 0 27.3713V18.6585C0 18.6296 0.00760533 18.6012 0.0220507 18.5762L10.7075 0.0821715ZM10.923 0.366343L0.801649 17.8841L17.9302 2.93562L10.923 0.366343ZM18.208 3.12957L0.349378 18.7152L1.55156 23.2724L5.14451 19.6928C5.18882 19.6486 5.25433 19.6335 5.31353 19.6536L17.8106 23.9091L26.9045 17.5434L18.208 3.12957ZM26.8584 17.9769L9.95778 29.8074C9.90668 29.8432 9.83974 29.847 9.78495 29.8171L2.18775 25.684L3.82546 31.892H23.3797L26.8584 17.9769ZM3.48543 31.892L0.328784 19.9261V27.3331L2.56828 31.892H3.48543ZM2.07247 25.2469L9.85264 29.4797L17.4768 24.1428L5.30422 19.9978L1.64851 23.6399L2.07247 25.2469Z" fill="url(#paint1_linear_463_116)"/>
<path d="M23.51 32.0566L27.1266 17.5901L17.8385 24.0918L9.8655 29.6729L1.93359 25.3576L3.70081 32.0566H23.51Z" fill="url(#paint2_linear_463_116)"/>
<path d="M27.1282 17.5895L18.2511 2.87646L0.167969 18.6581L1.46898 23.5898L5.26411 19.8088L17.8401 24.0912L27.1282 17.5895Z" fill="url(#paint3_linear_463_116)" fill-opacity="0.3"/>
<path d="M27.1282 17.5895L18.2511 2.87646L0.167969 18.6581L1.46898 23.5898L5.26411 19.8088L17.8401 24.0912L27.1282 17.5895Z" fill="url(#paint4_linear_463_116)" fill-opacity="0.2"/>
<path fill-rule="evenodd" clip-rule="evenodd" d="M18.2729 2.71438C18.3209 2.72189 18.3631 2.75026 18.3882 2.79187L27.2654 17.5049C27.3101 17.579 27.2898 17.675 27.2189 17.7245L17.9308 24.2262C17.8878 24.2563 17.8331 24.2641 17.7835 24.2472L5.30422 19.9977L1.58144 23.7066C1.53979 23.7481 1.47915 23.7642 1.42241 23.7488C1.36567 23.7334 1.32145 23.6889 1.30646 23.6321L0.00544351 18.7003C-0.0105004 18.6399 0.00921055 18.5757 0.0563041 18.5345L18.1394 2.75294C18.176 2.72098 18.2249 2.70687 18.2729 2.71438ZM0.349384 18.7152L1.55157 23.2723L5.14452 19.6927C5.18882 19.6486 5.25433 19.6334 5.31353 19.6535L17.8106 23.9091L26.9045 17.5433L18.208 3.12949L0.349384 18.7152Z" fill="url(#paint5_linear_463_116)"/>
<path d="M9.88052 29.6731L1.94862 25.3578L1.48242 23.5906L5.27755 19.8096L17.8535 24.092L9.88052 29.6731Z" fill="url(#paint6_linear_463_116)" fill-opacity="0.3"/>
<path fill-rule="evenodd" clip-rule="evenodd" d="M5.15795 19.6927C5.20226 19.6486 5.26777 19.6334 5.32697 19.6536L17.9029 23.936C17.9616 23.9559 18.004 24.0071 18.0127 24.0684C18.0214 24.1297 17.995 24.1907 17.9442 24.2263L9.97122 29.8074C9.92012 29.8431 9.85318 29.8469 9.79839 29.8171L1.86648 25.5018C1.82672 25.4802 1.79764 25.4431 1.78609 25.3993L1.31989 23.6321C1.30494 23.5754 1.3213 23.5151 1.36282 23.4737L5.15795 19.6927ZM5.31766 19.9977L1.66196 23.6398L2.08591 25.2469L9.86608 29.4796L17.4902 24.1427L5.31766 19.9977Z" fill="url(#paint7_linear_463_116)"/>
<path d="M45.2824 26.0211C43.962 26.0211 42.772 25.7138 41.7124 25.0991C40.6528 24.4845 39.8133 23.5625 39.1938 22.3332C38.5906 21.0872 38.2891 19.5257 38.2891 17.6484C38.2891 16.2696 38.4602 15.0403 38.8026 13.9605C39.1612 12.8807 39.691 11.967 40.392 11.2194C41.0929 10.4552 41.9488 9.87379 42.9595 9.47509C43.9865 9.07639 45.1683 8.87704 46.5051 8.87704C47.5158 8.87704 48.4287 8.99333 49.2437 9.22591C50.0751 9.45848 50.7924 9.79073 51.3955 10.2227C51.9987 10.6546 52.4633 11.1696 52.7893 11.7676C53.1317 12.3657 53.311 13.0385 53.3273 13.786L49.6105 14.9572C49.5942 14.3426 49.4394 13.8276 49.1459 13.4123C48.8525 12.9969 48.4613 12.6813 47.9722 12.4653C47.4832 12.2328 46.9371 12.1165 46.3339 12.1165C45.4862 12.1165 44.7689 12.3158 44.1821 12.7145C43.6115 13.0966 43.1714 13.6864 42.8617 14.4838C42.5682 15.2812 42.4215 16.2779 42.4215 17.474C42.4215 18.3711 42.503 19.1602 42.666 19.8413C42.8454 20.5058 43.1062 21.0623 43.4485 21.5108C43.7908 21.9594 44.2065 22.2999 44.6956 22.5325C45.2009 22.7485 45.7959 22.8565 46.4806 22.8565C47.1653 22.8565 47.7521 22.7485 48.2412 22.5325C48.7465 22.3166 49.1459 21.9843 49.4393 21.5358C49.7328 21.0872 49.8876 20.5141 49.9039 19.8164H47.043V16.9756H53.8163V25.6723H51.1266L51.0777 21.5607H50.5886C50.3115 22.5242 49.9528 23.3382 49.5127 24.0027C49.0726 24.6672 48.5102 25.1739 47.8255 25.5228C47.1408 25.855 46.2931 26.0211 45.2824 26.0211Z" fill="url(#paint8_linear_463_116)"/>
<path d="M56.5187 25.6723V12.5152H59.7464L59.8198 16.9756H60.3088C60.4229 15.8128 60.6348 14.8908 60.9446 14.2097C61.2706 13.5119 61.7271 13.0052 62.3139 12.6896C62.9171 12.374 63.6588 12.2162 64.5391 12.2162C64.6695 12.2162 64.8162 12.2245 64.9792 12.2411C65.1422 12.2411 65.3297 12.2577 65.5416 12.2909L65.3949 16.5769C65.1341 16.444 64.8488 16.361 64.5391 16.3277C64.2456 16.2779 63.9848 16.253 63.7566 16.253C63.1208 16.253 62.5666 16.3776 62.0938 16.6268C61.6374 16.876 61.2706 17.258 60.9935 17.773C60.7327 18.288 60.5615 18.9359 60.48 19.7167V25.6723H56.5187Z" fill="url(#paint9_linear_463_116)"/>
<path d="M70.2726 26.0211C69.5553 26.0211 68.9196 25.8799 68.3653 25.5975C67.811 25.2985 67.3791 24.8749 67.0693 24.3267C66.7596 23.7618 66.6047 23.0807 66.6047 22.2833C66.6047 21.5358 66.7433 20.9211 67.0204 20.4393C67.3139 19.941 67.7295 19.5506 68.2675 19.2682C68.8217 18.9691 69.482 18.7283 70.2481 18.5455C71.0143 18.3462 71.8864 18.1717 72.8645 18.0222C73.3373 17.9392 73.7285 17.8644 74.0383 17.798C74.3643 17.7149 74.6088 17.5903 74.7718 17.4242C74.9348 17.258 75.0164 17.0172 75.0164 16.7015C75.0164 16.2862 74.8696 15.929 74.5762 15.63C74.2828 15.331 73.81 15.1815 73.158 15.1815C72.7015 15.1815 72.2858 15.2645 71.9109 15.4307C71.5523 15.5968 71.2425 15.8377 70.9817 16.1533C70.7209 16.469 70.5253 16.851 70.3948 17.2996L66.9226 16.253C67.1345 15.5553 67.428 14.9489 67.8029 14.4339C68.1941 13.9189 68.6587 13.4953 69.1967 13.1631C69.7346 12.8142 70.3459 12.565 71.0306 12.4155C71.7316 12.2494 72.4733 12.1663 73.2558 12.1663C74.5599 12.1663 75.6195 12.3823 76.4346 12.8142C77.266 13.2295 77.8773 13.8857 78.2685 14.7828C78.6761 15.6632 78.8798 16.8012 78.8798 18.1967V20.2151C78.8798 20.8131 78.888 21.4195 78.9043 22.0341C78.9369 22.6322 78.9695 23.2385 79.0021 23.8532C79.051 24.4513 79.108 25.0576 79.1733 25.6723H75.701C75.6358 25.2902 75.5706 24.8333 75.5054 24.3017C75.4402 23.7535 75.3913 23.197 75.3587 22.6322H74.8941C74.6659 23.2635 74.3317 23.8449 73.8915 24.3765C73.4677 24.8915 72.946 25.2985 72.3266 25.5975C71.7234 25.8799 71.0388 26.0211 70.2726 26.0211ZM72.0576 23.1804C72.351 23.1804 72.6445 23.1306 72.9379 23.0309C73.2476 22.9146 73.5411 22.7651 73.8182 22.5824C74.0953 22.383 74.348 22.1421 74.5762 21.8597C74.8044 21.5773 74.9756 21.27 75.0897 20.9377L75.0408 18.9691L75.5788 19.0937C75.269 19.2931 74.9267 19.4509 74.5518 19.5672C74.1768 19.6835 73.7937 19.7748 73.4025 19.8413C73.0276 19.9077 72.6526 19.9825 72.2777 20.0656C71.919 20.132 71.593 20.2234 71.2996 20.3397C71.0225 20.456 70.8024 20.6138 70.6394 20.8131C70.4764 21.0125 70.3948 21.2866 70.3948 21.6354C70.3948 22.1006 70.5497 22.4744 70.8594 22.7568C71.1692 23.0392 71.5686 23.1804 72.0576 23.1804Z" fill="url(#paint10_linear_463_116)"/>
<path d="M81.783 29.8835V12.5152H85.0107L85.0596 16.253L85.4997 16.3028C85.6464 15.3725 85.9073 14.6 86.2822 13.9854C86.6571 13.3707 87.138 12.9139 87.7249 12.6149C88.3281 12.3158 89.0127 12.1663 89.7789 12.1663C90.92 12.1663 91.8981 12.4487 92.7132 13.0136C93.5446 13.5784 94.1803 14.3841 94.6205 15.4307C95.0606 16.4773 95.2807 17.7315 95.2807 19.1934C95.2807 20.4892 95.0851 21.6521 94.6938 22.682C94.3189 23.712 93.7402 24.526 92.9577 25.1241C92.1915 25.7221 91.2134 26.0211 90.0234 26.0211C89.2247 26.0211 88.5481 25.8799 87.9939 25.5975C87.4396 25.2985 86.9669 24.8666 86.5756 24.3017C86.2007 23.7369 85.8828 23.0309 85.622 22.1837H85.1574C85.2552 22.6322 85.3449 23.089 85.4264 23.5542C85.5079 24.0193 85.5731 24.4679 85.622 24.8998C85.6872 25.3317 85.7198 25.747 85.7198 26.1457V29.8835H81.783ZM88.5807 22.8565C89.1187 22.8565 89.5751 22.7069 89.9501 22.4079C90.3413 22.1089 90.6429 21.6853 90.8548 21.1371C91.0667 20.5889 91.1727 19.9493 91.1727 19.2183C91.1727 18.4375 91.0586 17.773 90.8304 17.2248C90.6184 16.66 90.3087 16.2281 89.9012 15.929C89.4936 15.6134 89.0209 15.4556 88.4829 15.4556C87.9776 15.4556 87.5456 15.5719 87.187 15.8045C86.8446 16.0204 86.5593 16.3111 86.3311 16.6766C86.1192 17.0255 85.9643 17.3993 85.8665 17.798C85.7687 18.1967 85.7198 18.5704 85.7198 18.9193V19.4675C85.7198 19.7831 85.7606 20.0988 85.8421 20.4144C85.9236 20.7301 86.0458 21.0374 86.2089 21.3364C86.3719 21.6188 86.5675 21.8763 86.7957 22.1089C87.0239 22.3415 87.2848 22.5242 87.5782 22.6571C87.8879 22.79 88.2221 22.8565 88.5807 22.8565Z" fill="url(#paint11_linear_463_116)"/>
<path d="M97.6388 25.6723V7.73078H101.576V11.8424C101.576 12.1746 101.559 12.5235 101.527 12.889C101.51 13.2378 101.47 13.6033 101.404 13.9854C101.356 14.3509 101.299 14.7246 101.233 15.1067C101.184 15.4888 101.119 15.8626 101.038 16.2281H101.625C101.853 15.4141 102.138 14.708 102.48 14.11C102.823 13.4953 103.271 13.0219 103.825 12.6896C104.38 12.3407 105.089 12.1663 105.953 12.1663C107.485 12.1663 108.626 12.7145 109.376 13.811C110.142 14.8908 110.525 16.5603 110.525 18.8196V25.6723H106.564V19.4924C106.564 18.1468 106.368 17.1418 105.977 16.4773C105.602 15.7961 105.023 15.4556 104.241 15.4556C103.638 15.4556 103.141 15.6466 102.749 16.0287C102.358 16.4108 102.065 16.9258 101.869 17.5737C101.673 18.205 101.576 18.911 101.576 19.6918V25.6723H97.6388Z" fill="url(#paint12_linear_463_116)"/>
<path d="M113.351 25.6723V12.5152H117.288V25.6723H113.351ZM115.332 10.6712C114.582 10.6712 114.003 10.5134 113.596 10.1977C113.205 9.86549 113.009 9.40034 113.009 8.80229C113.009 8.17101 113.205 7.69756 113.596 7.38192C114.003 7.04967 114.582 6.88354 115.332 6.88354C116.098 6.88354 116.677 7.04967 117.068 7.38192C117.476 7.69756 117.679 8.16271 117.679 8.77737C117.679 9.39203 117.476 9.86549 117.068 10.1977C116.677 10.5134 116.098 10.6712 115.332 10.6712Z" fill="url(#paint13_linear_463_116)"/>
<path d="M125.385 25.9962C123.869 25.9962 122.752 25.5892 122.035 24.7752C121.318 23.9446 120.959 22.6239 120.959 20.8131V15.6549H119.125L119.199 12.5401H120.519C121.041 12.5235 121.432 12.4404 121.693 12.2909C121.97 12.1414 122.141 11.859 122.206 11.4437L122.524 9.59969H124.749V12.5152H127.855V15.7795H124.749V20.6387C124.749 21.2035 124.88 21.6188 125.141 21.8846C125.418 22.1504 125.833 22.2833 126.388 22.2833C126.697 22.2833 126.991 22.2501 127.268 22.1837C127.545 22.1172 127.773 22.0258 127.953 21.9095V25.6224C127.431 25.7886 126.95 25.8882 126.51 25.9215C126.086 25.9713 125.711 25.9962 125.385 25.9962Z" fill="url(#paint14_linear_463_116)"/>
<path d="M136.372 26.0211C135.296 26.0211 134.334 25.8799 133.486 25.5975C132.639 25.2985 131.913 24.8666 131.31 24.3017C130.723 23.7369 130.275 23.0392 129.965 22.2086C129.655 21.3779 129.5 20.4227 129.5 19.3429C129.5 18.2963 129.647 17.3328 129.941 16.4523C130.25 15.5719 130.682 14.816 131.237 14.1847C131.807 13.5368 132.5 13.0385 133.315 12.6896C134.146 12.3407 135.076 12.1663 136.103 12.1663C137.146 12.1663 138.059 12.3407 138.841 12.6896C139.64 13.0219 140.292 13.5202 140.797 14.1847C141.319 14.8492 141.702 15.6632 141.947 16.6268C142.191 17.5737 142.273 18.6618 142.191 19.8911L132.092 19.9659V17.8727L139.942 17.798L138.548 18.7698C138.662 17.9392 138.613 17.2664 138.401 16.7514C138.189 16.2198 137.879 15.8377 137.472 15.6051C137.064 15.3559 136.624 15.2313 136.152 15.2313C135.581 15.2313 135.076 15.3891 134.635 15.7048C134.212 16.0204 133.877 16.4773 133.633 17.0753C133.388 17.6734 133.266 18.4043 133.266 19.2682C133.266 20.6304 133.551 21.6188 134.122 22.2335C134.709 22.8482 135.451 23.1555 136.347 23.1555C136.787 23.1555 137.154 23.0973 137.447 22.9811C137.741 22.8482 137.977 22.6903 138.157 22.5076C138.352 22.3082 138.499 22.0923 138.597 21.8597C138.711 21.6271 138.801 21.4029 138.866 21.1869L142.289 21.9345C142.159 22.5491 141.947 23.1056 141.653 23.604C141.376 24.1024 140.993 24.5343 140.504 24.8998C140.031 25.2653 139.453 25.5394 138.768 25.7221C138.1 25.9215 137.301 26.0211 136.372 26.0211Z" fill="url(#paint15_linear_463_116)"/>
<defs>
<linearGradient id="paint0_linear_463_116" x1="-2.59596" y1="18.0596" x2="-17.2151" y2="60.2927" gradientUnits="userSpaceOnUse">
<stop stop-color="#070707"/>
<stop offset="1" stop-color="white" stop-opacity="0"/>
</linearGradient>
<linearGradient id="paint1_linear_463_116" x1="13.6445" y1="0" x2="13.6445" y2="32.2208" gradientUnits="userSpaceOnUse">
<stop/>
<stop offset="1" stop-color="white" stop-opacity="0.08"/>
</linearGradient>
<linearGradient id="paint2_linear_463_116" x1="19.4943" y1="35.278" x2="27.2912" y2="1.16672" gradientUnits="userSpaceOnUse">
<stop stop-color="#2E2E2E"/>
<stop offset="1" stop-color="#2E2E2E" stop-opacity="0"/>
</linearGradient>
<linearGradient id="paint3_linear_463_116" x1="38.6625" y1="-12.1535" x2="-8.76849" y2="31.7039" gradientUnits="userSpaceOnUse">
<stop offset="0.353486" stop-color="#DEDEDE"/>
<stop offset="0.831286" stop-color="#575757" stop-opacity="0"/>
</linearGradient>
<linearGradient id="paint4_linear_463_116" x1="16.4709" y1="0.65878" x2="4.61234" y2="61.2691" gradientUnits="userSpaceOnUse">
<stop/>
<stop offset="0.105214" stop-color="white"/>
<stop offset="0.18208" stop-opacity="0.233331"/>
<stop offset="0.239583" stop-color="white" stop-opacity="0.57"/>
<stop offset="0.364583" stop-opacity="0"/>
<stop offset="0.5" stop-color="white" stop-opacity="0.44"/>
</linearGradient>
<linearGradient id="paint5_linear_463_116" x1="13.6445" y1="2.7124" x2="13.6445" y2="24.2559" gradientUnits="userSpaceOnUse">
<stop/>
<stop offset="1" stop-color="white" stop-opacity="0.08"/>
</linearGradient>
<linearGradient id="paint6_linear_463_116" x1="9.66797" y1="19.8096" x2="9.66797" y2="29.6731" gradientUnits="userSpaceOnUse">
<stop stop-color="#B9B9B9"/>
<stop offset="1" stop-color="#B9B9B9" stop-opacity="0"/>
</linearGradient>
<linearGradient id="paint7_linear_463_116" x1="7.78906" y1="29.8835" x2="7.78906" y2="20.8835" gradientUnits="userSpaceOnUse">
<stop stop-color="#636363"/>
<stop offset="0.526413" stop-color="#3A3A3A"/>
<stop offset="1" stop-color="#1A1A1A"/>
</linearGradient>
<linearGradient id="paint8_linear_463_116" x1="77.9026" y1="21.8212" x2="85.8534" y2="57.5509" gradientUnits="userSpaceOnUse">
<stop stop-color="#282826"/>
<stop offset="1" stop-color="#282826" stop-opacity="0"/>
</linearGradient>
<linearGradient id="paint9_linear_463_116" x1="77.9026" y1="21.8212" x2="85.8534" y2="57.5509" gradientUnits="userSpaceOnUse">
<stop stop-color="#282826"/>
<stop offset="1" stop-color="#282826" stop-opacity="0"/>
</linearGradient>
<linearGradient id="paint10_linear_463_116" x1="77.9026" y1="21.8212" x2="85.8534" y2="57.5509" gradientUnits="userSpaceOnUse">
<stop stop-color="#282826"/>
<stop offset="1" stop-color="#282826" stop-opacity="0"/>
</linearGradient>
<linearGradient id="paint11_linear_463_116" x1="77.9026" y1="21.8212" x2="85.8534" y2="57.5509" gradientUnits="userSpaceOnUse">
<stop stop-color="#282826"/>
<stop offset="1" stop-color="#282826" stop-opacity="0"/>
</linearGradient>
<linearGradient id="paint12_linear_463_116" x1="77.9026" y1="21.8212" x2="85.8534" y2="57.5509" gradientUnits="userSpaceOnUse">
<stop stop-color="#282826"/>
<stop offset="1" stop-color="#282826" stop-opacity="0"/>
</linearGradient>
<linearGradient id="paint13_linear_463_116" x1="77.9026" y1="21.8212" x2="85.8534" y2="57.5509" gradientUnits="userSpaceOnUse">
<stop stop-color="#282826"/>
<stop offset="1" stop-color="#282826" stop-opacity="0"/>
</linearGradient>
<linearGradient id="paint14_linear_463_116" x1="77.9026" y1="21.8212" x2="85.8534" y2="57.5509" gradientUnits="userSpaceOnUse">
<stop stop-color="#282826"/>
<stop offset="1" stop-color="#282826" stop-opacity="0"/>
</linearGradient>
<linearGradient id="paint15_linear_463_116" x1="77.9026" y1="21.8212" x2="85.8534" y2="57.5509" gradientUnits="userSpaceOnUse">
<stop stop-color="#282826"/>
<stop offset="1" stop-color="#282826" stop-opacity="0"/>
</linearGradient>
</defs>
</svg>
